Coordinates
version=1
nRows=5
nColumns=40
inDegrees=yes

Units are S.I. units (second, meters, Newtons, ...)
Angles are in degrees.

endheader
time	pelvis_tilt	pelvis_list	pelvis_rotation	pelvis_tx	pelvis_ty	pelvis_tz	hip_flexion_r	hip_adduction_r	hip_rotation_r	knee_angle_r	knee_angle_r_beta	ankle_angle_r	subtalar_angle_r	mtp_angle_r	hip_flexion_l	hip_adduction_l	hip_rotation_l	knee_angle_l	knee_angle_l_beta	ankle_angle_l	subtalar_angle_l	mtp_angle_l	lumbar_extension	lumbar_bending	lumbar_rotation	arm_flex_r	arm_add_r	arm_rot_r	elbow_flex_r	pro_sup_r	wrist_flex_r	wrist_dev_r	arm_flex_l	arm_add_l	arm_rot_l	elbow_flex_l	pro_sup_l	wrist_flex_l	wrist_dev_l
     30.89000000	     -4.47079784	     -5.06547952	     -4.33510396	      0.93527101	      0.92810505	      0.51712081	     14.70069360	      6.05469981	     -9.50384797	     18.28969258	     18.28969258	      9.93880391	     -3.35936172	     -3.59089407	     19.34847789	    -11.44586393	      0.27725021	     58.01285306	     58.01285306	      8.94978767	    -19.13629103	     12.58015477	     -9.93831044	      8.43242971	      0.76701187	      2.30079356	    -14.87791630	    -14.72240338	     31.36642332	     46.26431850	      0.00000000	      0.00000000	     27.27756341	    -15.23156034	    -14.10929075	     73.09368548	     47.15756022	      0.00000000	      0.00000000
     30.90985714	     -4.28650707	     -5.07592476	     -3.56968937	      0.93367593	      0.92651036	      0.51934032	     14.95076439	      6.12213712	     -9.41737726	     19.68379233	     19.68379233	     10.64814241	     -5.02840214	     -3.70334342	     21.28173136	    -11.63994762	      0.97874699	     60.24293328	     60.24293328	      8.85468563	    -19.26415566	     13.33949511	    -10.10342074	      8.06693360	      0.37271990	      4.56927080	    -14.60598083	    -14.53538684	     32.46419530	     46.22240350	      0.00000000	      0.00000000	     24.97419834	    -14.23331777	    -13.37509112	     70.55995108	     47.06127801	      0.00000000	      0.00000000
     30.92971429	     -4.06002420	     -5.14282515	     -2.76085771	      0.93201739	      0.92480095	      0.52155507	     15.17438003	      6.28266006	     -9.27068810	     21.11488791	     21.11488791	     11.38265303	     -6.91731012	     -3.58937797	     23.21161979	    -11.87320965	      1.65893636	     62.19796067	     62.19796067	      9.15485075	    -19.35680706	     14.85657537	    -10.33202936	      7.80186348	     -0.10496397	      6.96437216	    -14.37321636	    -14.22613832	     33.79710061	     46.16398374	      0.00000000	      0.00000000	     22.79766274	    -13.38435831	    -12.52237666	     67.27194983	     46.94902388	      0.00000000	      0.00000000
     30.94957143	     -3.67038245	     -5.17487848	     -1.96167199	      0.93041176	      0.92349150	      0.52362148	     15.07305727	      6.46985184	     -8.96478320	     22.28276054	     22.28276054	     12.30375869	     -8.75493653	     -2.47922065	     24.94389902	    -11.98833710	      2.25990983	     63.72409365	     63.72409365	     10.61943560	    -19.41958107	     19.25326842	    -10.75527044	      7.50608761	      0.17723751	      8.82098451	    -14.53955581	    -13.12002566	     35.40767256	     46.04148914	      0.00000000	      0.00000000	     21.88065359	    -12.09820189	    -10.92216372	     61.58145285	     46.78959652	      0.00000000	      0.00000000
     30.96942857	     -3.50151634	     -5.14631429	     -1.12191195	      0.92867631	      0.92168578	      0.52545841	     15.30784043	      6.47708058	     -9.12456318	     23.61834811	     23.61834811	     13.08232654	    -10.04770580	     -2.28839748	     26.76485777	    -12.18634974	      2.50892886	     64.45025841	     64.45025841	     11.12708326	    -19.49423492	     20.09823416	    -10.99086048	      7.17226728	     -0.39673033	     11.18849922	    -14.24919529	    -12.76639070	     37.26977180	     45.96113541	      0.00000000	      0.00000000	     19.72121154	    -11.37223015	     -9.97831589	     58.10958553	     46.67283494	      0.00000000	      0.00000000
